<svg width="24" height="24" viewBox="0 0 24 24" fill="none" xmlns="http://www.w3.org/2000/svg">
<g clip-path="url(#clip0_174_6123)">
<path d="M1.24022 24.0001C0.924083 24.0001 0.607943 23.8798 0.36775 23.6378C-0.114445 23.1556 -0.114445 22.3739 0.36775 21.8917L21.8978 0.361646C22.38 -0.120549 23.1617 -0.120549 23.6439 0.361646C24.1261 0.843842 24.1261 1.6256 23.6439 2.1081L2.1142 23.6378C1.8722 23.8783 1.55606 24.0001 1.24022 24.0001Z" fill="black"/>
<path d="M22.7717 24.0001C22.4556 24.0001 22.1398 23.8798 21.8993 23.6378L0.36775 2.1081C-0.114445 1.6256 -0.114445 0.843842 0.36775 0.361646C0.849945 -0.120549 1.6317 -0.120549 2.1142 0.361646L23.6439 21.8917C24.1261 22.3739 24.1261 23.1556 23.6439 23.6378C23.4019 23.8783 23.0861 24.0001 22.7717 24.0001Z" fill="black"/>
</g>
<defs>
<clipPath id="clip0_174_6123">
<rect width="24" height="24" fill="black"/>
</clipPath>
</defs>
</svg>
